<?xml version="1.0" encoding="UTF-8"?>
<svg xmlns="http://www.w3.org/2000/svg" id="Layer_1" data-name="Layer 1" viewBox="0 0 48 48" width="512" height="512"><path d="M24,2A22,22,0,1,0,46,24,22.025,22.025,0,0,0,24,2Zm0,42A20,20,0,1,1,44,24,20.023,20.023,0,0,1,24,44Z"/><path d="M24,6A18,18,0,1,0,42,24,18.021,18.021,0,0,0,24,6Zm1,33.949V37a1,1,0,0,0-2,0v2.949A16,16,0,0,1,8.051,25H11a1,1,0,0,0,0-2H8.051A16,16,0,0,1,23,8.051V11a1,1,0,0,0,2,0V8.051A16,16,0,0,1,39.949,23H37a1,1,0,0,0,0,2h2.949A16,16,0,0,1,25,39.949Z"/><path d="M32.725,13.924,21.742,19.738a4.806,4.806,0,0,0-2.005,2.006L13.924,32.725a1,1,0,0,0,1.351,1.351l10.983-5.814a4.806,4.806,0,0,0,2.005-2.006l5.813-10.981a1,1,0,0,0-1.351-1.351Zm-11.3,8.912,3.742,3.742-7.952,4.21Zm5.156,2.328-3.742-3.742,7.952-4.21Z"/></svg>
