<svg id="Icons" viewBox="0 0 512 512" xmlns="http://www.w3.org/2000/svg"><path d="m254.6929 463.9998c0 4.4219-3.578 8-7.9998 8h-113.2628c-4.4218 0-7.9998-3.5781-7.9998-8s3.578-8 7.9998-8h113.2628c4.4218 0 7.9998 3.5781 7.9998 8zm257.2982 0v40.0002c0 4.4219-3.578 8-7.9998 8h-495.9875c-4.4218 0-7.9998-3.5781-7.9998-8v-40.0002c0-4.4219 3.578-8 7.9998-8h7.9998v-32.0001c0-4.4219 3.578-8 7.9998-8h7.9998v-32.0001c0-4.4219 3.578-8 7.9998-8h15.9996v-24.0001c0-4.4219 3.578-8 7.9998-8v-54.4611c0-4.4219 3.578-8 7.9998-8s7.9998 3.5781 7.9998 8v54.4611h23.9994v-112.0004h-23.9994v24.0001c0 4.4219-3.578 8-7.9998 8s-7.9998-3.5781-7.9998-8v-24.0001c-4.4218 0-7.9998-3.5781-7.9998-8v-24.0001h-15.9996c-4.4218 0-7.9998-3.5781-7.9998-8v-56.0002h-14.984c-8.2498 0-15.1168-5.336-16.6871-12.9727-1.5312-7.3985 2.3281-14.4805 9.5935-17.6133l242.9002-104.7624c2.0312-.8672 4.3124-.8672 6.3436 0l242.9001 104.7582c7.2654 3.1367 11.1247 10.2149 9.6013 17.6173-1.5781 7.6367-8.4373 12.9727-16.6871 12.9727h-14.9918v56.0002c0 4.4219-3.578 8-7.9998 8h-15.9996v24.0001c0 4.4219-3.578 8-7.9998 8v112.0004c4.4218 0 7.9998 3.5781 7.9998 8v24.0001h15.9996c4.4218 0 7.9998 3.5781 7.9998 8v32.0001h7.9998c4.4218 0 7.9998 3.5781 7.9998 8v32.0001h7.9998c4.4218 0 7.9998 3.5781 7.9998 8zm-71.9982-88.0003v-16.0001h-39.999v16.0001zm-55.9986 0v-24.0001c0-4.4219 3.578-8 7.9998-8v-112.0004c-4.4218 0-7.9998-3.5781-7.9998-8v-24.0001h-37.3272v24.0001c0 4.4219-3.578 8-7.9998 8v112.0004c4.4218 0 7.9998 3.5781 7.9998 8v24.0001zm-53.3267 0v-16.0001h-39.999v16.0001zm-55.9986 0v-24.0001c0-4.4219 3.578-8 7.9998-8v-112.0004c-4.4218 0-7.9998-3.5781-7.9998-8v-24.0001h-37.335v24.0001c0 4.4219-3.578 8-7.9998 8v112.0004c4.4218 0 7.9998 3.5781 7.9998 8v24.0001zm-53.3346 0v-16.0001h-39.999v16.0001zm0-160.0006v-16.0001h-39.999v16.0001zm69.3342-16.0001v16.0001h39.999v-16.0001zm31.9992 144.0006v-112.0004h-23.9994v112.0004zm109.3253-112.0005h-23.9994v112.0004h23.9994zm7.9998-32.0001h-39.999v16.0001h39.999zm-391.9901-16.0001h415.9895v-48.0002h-298.6565c-4.4218 0-7.9998-3.582-7.9998-8s3.578-8 7.9998-8h329.6479c.664 0 .9844-.1719 1.0312-.2539l-240.0095-103.0356-239.4393 103.2661c.125.0117.2734.0234.4531.0234h102.9818c4.4218 0 7.9998 3.582 7.9998 8s-3.578 8-7.9998 8h-71.9982zm23.9994 16.0001v16.0001h39.999v-16.0001zm47.9988 144.0006c4.4218 0 7.9998 3.5781 7.9998 8v24.0001h37.335v-24.0001c0-4.4219 3.578-8 7.9998-8v-33.0392c0-4.4219 3.578-8 7.9998-8s7.9998 3.5781 7.9998 8v33.0392h23.9994v-112.0004h-23.9994v40.0002c0 4.4219-3.578 8-7.9998 8s-7.9998-3.5781-7.9998-8v-40.0002c-4.4218 0-7.9998-3.5781-7.9998-8v-24.0001h-37.335v24.0001c0 4.4219-3.578 8-7.9998 8zm-47.9988 32.0001h39.999v-16.0001h-39.999zm423.9893 96.0003h-192.1905c-4.4218 0-7.9998-3.5781-7.9998-8s3.578-8 7.9998-8h176.1909v-24.0001h-249.2984c-4.4218 0-7.9998-3.5781-7.9998-8s3.578-8 7.9998-8h233.2988v-24.0001h-415.9895v24.0001h67.9045c4.4218 0 7.9998 3.5781 7.9998 8s-3.578 8-7.9998 8h-83.9041v24.0001h59.6469c4.4218 0 7.9998 3.5781 7.9998 8s-3.578 8-7.9998 8h-75.6465v24.0001h479.9879zm-330.6557-40.0001h13.734c4.4218 0 7.9998-3.5781 7.9998-8s-3.578-8-7.9998-8h-13.734c-4.4218 0-7.9998 3.5781-7.9998 8s3.578 8 7.9998 8zm56.8501-355.0717c-1.4297-2.4766-1.4297-5.5235 0-8l13.445-23.2813c1.4297-2.4766 4.0702-4 6.9295-4h26.8821c2.8593 0 5.4999 1.5234 6.9295 4l13.4372 23.2813c1.4297 2.4766 1.4297 5.5235 0 8l-13.4372 23.2813c-1.4297 2.4766-4.0702 4-6.9295 4h-26.8821c-2.8593 0-5.4999-1.5234-6.9295-4zm16.1637-4 8.8279 15.2813h17.648l8.8201-15.2813-8.8201-15.2813h-17.648zm-166.0427 95.0707h87.1931c4.4218 0 7.9998-3.5781 7.9998-8s-3.578-8-7.9998-8h-87.1931c-4.4218 0-7.9998 3.5781-7.9998 8s3.578 8 7.9998 8zm229.4317 0h22.6635c4.4218 0 7.9998-3.5781 7.9998-8s-3.578-8-7.9998-8h-22.6635c-4.4218 0-7.9998 3.5781-7.9998 8s3.578 8 7.9998 8zm64.0687 0h68.4123c4.4218 0 7.9998-3.5781 7.9998-8s-3.578-8-7.9998-8h-68.4123c-4.4218 0-7.9998 3.5781-7.9998 8s3.578 8 7.9998 8zm-170.7379 0h51.6237c4.4218 0 7.9998-3.5781 7.9998-8s-3.578-8-7.9998-8h-51.6237c-4.4218 0-7.9998 3.5781-7.9998 8s3.578 8 7.9998 8z"/></svg>