<svg height="512pt" viewBox="0 0 512.001 512" width="512pt" xmlns="http://www.w3.org/2000/svg"><path d="m504.351562 496.929688h-11.101562v-153.667969c0-4.144531-3.359375-7.503907-7.5-7.503907-4.144531 0-7.503906 3.359376-7.503906 7.503907v96.714843h-41.511719c-7.195313 0-13.046875 5.613282-13.046875 12.511719v44.441407h-16.492188c.464844-1.710938.738282-3.5.738282-5.355469 0-4.144531-3.359375-7.503907-7.5-7.503907-4.144532 0-7.503906 3.359376-7.503906 7.503907 0 2.953125-2.402344 5.355469-5.355469 5.355469s-5.355469-2.402344-5.355469-5.355469v-67.53125h53.527344c12.636718 0 22.917968-10.28125 22.917968-22.917969v-7.46875c0-4.988281-4.058593-9.046875-9.050781-9.046875h-41.304687c-2.507813-15.300781-12.523438-27.457031-25.316406-30.894531-.636719-3.496094-3.691407-6.148438-7.375-6.148438-3.679688 0-6.734376 2.652344-7.371094 6.148438-12.792969 3.4375-22.8125 15.59375-25.316406 30.894531h-43.109376c-4.992187 0-9.050781 4.058594-9.050781 9.046875v7.46875c0 12.636719 10.28125 22.917969 22.917969 22.917969h53.527344v67.53125c0 2.953125-2.402344 5.355469-5.355469 5.355469s-5.355469-2.402344-5.355469-5.355469c0-4.144531-3.359375-7.503907-7.503906-7.503907-4.140625 0-7.5 3.359376-7.5 7.503907 0 1.855469.269531 3.644531.738281 5.355469h-14.6875v-44.441407c0-6.898437-5.851562-12.511719-13.046875-12.511719h-41.511718v-96.714843c0-4.144531-3.359376-7.503907-7.503907-7.503907-4.140625 0-7.5 3.359376-7.5 7.503907v153.667969h-29.238281v-17.230469c0-6.683594-5.4375-12.117188-12.117188-12.117188h-2.5v-105.050781c0-4.140625-3.359374-7.5-7.5-7.5-4.144531 0-7.503906 3.359375-7.503906 7.5v105.050781h-94.769531v-176.488281c0-1.027344.835937-1.863281 1.863281-1.863281h91.042969c1.027344 0 1.863281.835937 1.863281 1.863281v36.429688c0 4.140624 3.359375 7.5 7.5 7.5 4.144532 0 7.503906-3.359376 7.503906-7.5v-36.429688c0-9.296875-7.566406-16.867188-16.867187-16.867188h-91.042969c-9.300781 0-16.867187 7.570313-16.867187 16.867188v176.488281h-2.5c-6.679688 0-12.117188 5.433594-12.117188 12.117188v17.230469h-10.851562v-42.710938c0-4.140625-3.359375-7.5-7.503907-7.5-4.140624 0-7.5 3.355469-7.5 7.5v42.710938h-41.382812c-4.140625 0-7.5 3.359374-7.5 7.5 0 4.144531 3.359375 7.503906 7.5 7.503906h496.851562c4.144532 0 7.503907-3.359375 7.503907-7.503906 0-4.140626-3.359375-7.5-7.503907-7.5zm-128.730468-129.195313c8.125 0 15.03125 7.09375 17.410156 16.875h-34.824219c2.382813-9.78125 9.285157-16.875 17.414063-16.875zm-69.851563 33.390625v-1.515625h137.894531v1.515625c0 4.367188-3.550781 7.917969-7.914062 7.917969h-122.0625c-4.367188 0-7.917969-3.550781-7.917969-7.917969zm132.921875 53.851562h39.554688v41.953126h-39.554688zm-165.699218 0h39.558593v41.953126h-39.558593zm-183.25 41.953126v-14.347657h124.007812v14.347657zm0 0"/><path d="m509.765625 150.167969-38.4375-56.824219c-6.671875-9.867188-17.316406-16.148438-29.019531-17.339844v-53.078125c0-12.640625-10.285156-22.925781-22.925782-22.925781h-326.910156c-12.644531 0-22.925781 10.285156-22.925781 22.925781v53.078125c-11.707031 1.191406-22.351563 7.472656-29.023437 17.339844l-38.914063 57.535156c-.722656.917969-1.238281 2.011719-1.46875 3.207032-.027344.132812-.039063.265624-.0585938.398437-.0195312.121094-.0351562.242187-.046875.371094-.0234374.246093-.03124995.496093-.03124995.746093v32.398438c0 19.359375 15.74999975 35.113281 35.10937475 35.113281 4.886719 0 9.539063-1.007812 13.769531-2.816406v198.746094c0 4.140625 3.359376 7.5 7.503907 7.5 4.140625 0 7.5-3.359375 7.5-7.5v-207.992188c6.441406 7.382813 15.90625 12.0625 26.453125 12.0625 11.195312 0 21.175781-5.273437 27.609375-13.460937 6.433593 8.1875 16.414062 13.460937 27.609375 13.460937 11.195312 0 21.175781-5.273437 27.613281-13.460937 6.429687 8.1875 16.414063 13.460937 27.609375 13.460937s21.175781-5.273437 27.609375-13.460937c6.433594 8.1875 16.414063 13.460937 27.613281 13.460937 11.195313 0 21.175782-5.273437 27.609375-13.460937 6.433594 8.1875 16.414063 13.460937 27.609375 13.460937 11.199219 0 21.179688-5.273437 27.613282-13.460937 6.433593 8.1875 16.414062 13.460937 27.609374 13.460937 11.195313 0 21.175782-5.273437 27.609376-13.460937 6.433593 8.1875 16.417968 13.460937 27.613281 13.460937 10.460937 0 19.863281-4.605469 26.300781-11.890625v143.847656c0 4.140626 3.359375 7.5 7.5 7.5 4.144531 0 7.503906-3.359374 7.503906-7.5v-134.84375c4.269532 1.851563 8.972656 2.886719 13.917969 2.886719 19.359375 0 35.109375-15.753906 35.109375-35.113281v-32.496094c0-2.085937-.855469-3.976562-2.234375-5.335937zm-395.726563-59.386719h20.625c-.648437 1.304688-1.246093 2.679688-1.792968 4.128906l-19.929688 53.09375h-37.894531l24.71875-46.964844c3.382813-6.421874 8.71875-10.257812 14.273437-10.257812zm298.046876 10.257812 24.722656 46.964844h-37.765625l-19.929688-53.09375c-.542969-1.449218-1.144531-2.824218-1.792969-4.128906h20.492188c5.558594 0 10.894531 3.835938 14.273438 10.257812zm-47.015626-.859374 17.949219 47.824218h-38.105469l-11.765624-52.109375c-.347657-1.542969-.8125-3.296875-1.410157-5.113281h25.441407c2.101562 0 5.464843 2.941406 7.890624 9.398438zm-46.554687-.980469 11.019531 48.804687h-39.042968l-3.824219-51.019531c-.15625-2.046875-.3125-4.152344-.546875-6.203125h29.292968c.746094 1.085938 2.023438 3.652344 3.101563 8.417969zm-46.808594-1.09375 3.742188 49.898437h-38.914063l3.742188-49.898437c.25-3.296875.527344-5.660157.777344-7.324219h29.878906c.25 1.664062.527344 4.027344.773437 7.324219zm-46.390625-1.121094-3.824218 51.019531h-39.042969l11.023437-48.804687c1.074219-4.765625 2.351563-7.332031 3.097656-8.417969h29.292969c-.230469 2.050781-.390625 4.15625-.546875 6.203125zm-46.476562-1.089844-11.769532 52.109375h-38.105468l17.953125-47.820312c2.425781-6.460938 5.789062-9.402344 7.890625-9.402344h25.441406c-.601562 1.816406-1.0625 3.570312-1.410156 5.113281zm280.066406 5.851563 31.285156 46.257812h-36.429687l-28.402344-53.953125c-.597656-1.140625-1.253906-2.222656-1.9375-3.269531h14.824219c8.292968 0 16.015625 4.101562 20.660156 10.964844zm-366.433594-86.742188h326.910156c4.371094 0 7.921876 3.554688 7.921876 7.921875v12.664063h-44.570313c-4.140625 0-7.5 3.355468-7.5 7.5 0 4.144531 3.359375 7.5 7.5 7.5h44.570313v25.191406h-342.757813v-25.191406h261c4.144531 0 7.5-3.359375 7.5-7.5 0-4.144532-3.355469-7.503906-7.5-7.503906h-261v-12.660157c0-4.371093 3.554687-7.921875 7.925781-7.921875zm-39.523437 86.742188c4.644531-6.867188 12.367187-10.964844 20.65625-10.964844h14.824219c-.683594 1.046875-1.335938 2.128906-1.9375 3.269531l-28.402344 53.953125h-36.429688zm-37.945313 86.253906v-24.925781h40.222656v24.925781c0 11.089844-9.023437 20.113281-20.113281 20.113281-11.085937 0-20.109375-9.023437-20.109375-20.113281zm75.332032 20.109375c-11.089844 0-20.109376-9.019531-20.109376-20.109375v-24.925781h40.222657v24.925781c-.003907 11.089844-9.023438 20.109375-20.113281 20.109375zm55.222656 0c-11.089844 0-20.109375-9.019531-20.109375-20.109375v-24.925781h40.21875v24.925781c0 11.089844-9.023438 20.109375-20.109375 20.109375zm55.222656 0c-11.089844 0-20.109375-9.019531-20.109375-20.109375v-24.925781h40.21875v24.925781c0 11.089844-9.023437 20.109375-20.109375 20.109375zm55.21875 0c-11.089844 0-20.109375-9.019531-20.109375-20.109375v-24.925781h40.222656v24.925781c0 11.089844-9.023437 20.109375-20.113281 20.109375zm55.222656 0c-11.089844 0-20.109375-9.019531-20.109375-20.109375v-24.925781h40.222657v24.925781c0 11.089844-9.023438 20.109375-20.113282 20.109375zm55.222656 0c-11.089843 0-20.109374-9.019531-20.109374-20.109375v-24.925781h40.21875v24.925781c0 11.089844-9.023438 20.109375-20.109376 20.109375zm55.21875 0c-11.085937 0-20.109374-9.019531-20.109374-20.109375v-24.925781h40.222656v24.925781c0 11.089844-9.023438 20.109375-20.113282 20.109375zm55.222657 0c-11.085938 0-20.109375-9.019531-20.109375-20.109375v-24.925781h40.222656v24.925781c0 11.089844-9.023438 20.109375-20.113281 20.109375zm0 0"/><path d="m186.078125 380.554688c0 4.140624-3.359375 7.5-7.503906 7.5-4.140625 0-7.5-3.359376-7.5-7.5 0-4.144532 3.359375-7.5 7.5-7.5 4.144531 0 7.503906 3.355468 7.503906 7.5zm0 0"/></svg>