<svg id="Layer_1" enable-background="new 0 0 512 512" height="512" viewBox="0 0 512 512" width="512" xmlns="http://www.w3.org/2000/svg"><path d="m256 4c-100.006 0-181.367 81.361-181.367 181.368 0 81.351 55.104 155.009 108.393 226.242 23.424 31.312 45.549 60.887 62.582 90.39 2.144 3.713 6.105 6 10.393 6s8.249-2.287 10.393-6c17.033-29.503 39.158-59.078 62.582-90.39 53.289-71.233 108.393-144.892 108.393-226.242-.002-100.007-81.363-181.368-181.369-181.368zm53.757 393.233c-19.418 25.957-37.961 50.745-53.757 75.64-15.796-24.895-34.339-49.683-53.757-75.64-50.938-68.09-103.61-138.499-103.61-211.866 0-86.772 70.595-157.367 157.367-157.367s157.367 70.595 157.367 157.368c0 73.367-52.672 143.775-103.61 211.865zm-53.757-320.584c-59.947 0-108.718 48.771-108.718 108.718s48.771 108.718 108.718 108.718 108.719-48.771 108.719-108.718-48.772-108.718-108.719-108.718zm0 193.436c-46.714 0-84.718-38.004-84.718-84.718s38.004-84.718 84.718-84.718 84.719 38.004 84.719 84.718-38.005 84.718-84.719 84.718z"/></svg>