<svg id="Layer_1" enable-background="new 0 0 511.988 511.988" height="512" viewBox="0 0 511.988 511.988" width="512" xmlns="http://www.w3.org/2000/svg"><g><path d="m63.356 443.092c-1.69-4.432-7.544-5.762-11.09-3.37-3.427 2.259-4.308 7.004-2.07 10.4 2.236 3.396 7.023 4.344 10.39 2.07 2.988-1.921 4.065-5.859 2.77-9.1z"/><path d="m117.931 386.882c-1.69-4.432-7.544-5.762-11.09-3.37-3.427 2.259-4.308 7.004-2.07 10.4 2.236 3.396 7.023 4.344 10.39 2.07 2.988-1.921 4.065-5.859 2.77-9.1z"/><path d="m462.44 127.696c3.261 7.533 14.154 5.163 14.42-2.87-.441-11.996-18.491-8.561-14.42 2.87z"/><g><path d="m510.057 288.929c2.057-2.587 2.605-5.776.985-8.677l-43.498-81.728c-1.042-2.047-2.991-3.517-5.252-3.955l-134.02-28.459 25.777-48.171c1.666-3.052.996-6.85-1.537-9.148l-77.387-73.317c-1.779-1.673-3.881-2.367-6.307-2.081l-203.494 24.268c-2.273.228-4.377 1.535-5.591 3.464l-58.44 89.535c-1.911 2.797-1.692 6.6.583 9.2l39.26 44.314c6.519 7.357 17.6-2.753 11.228-9.947l-29.759-33.59 86.089-10.267 74.946 192.032-105.443-119.015c-6.432-7.257-17.658 2.688-11.228 9.947l133.281 150.438c3.339 3.855 9.929 3.113 12.311-1.425l34.45-64.379 62.271 146.351c1.963 4.706 8.458 6.037 12.118 2.522l65.592-61.845c7.004-7.027-2.871-17.49-10.29-10.914l-35.092 33.088 76.514-153.939 70.806 15.036-81.317 76.672c-3.014 2.842-3.153 7.588-.312 10.602 3.491 3.032 7.025 3.136 10.602.312l91.692-86.454c.159-.15.315-.306.462-.47zm-283.048-56.281 70.752 15.024 8.794 171.927zm-57.617-167.593 55.851 56.311-97.237 11.596zm14.725-6.455 74.926-8.935-20.94 63.366zm-70.58 69.28-34.918-56.698 74.918-8.934zm119.066 7.714-9.956 70.702-12.718 10.043c-2.702 2.046-3.723 5.718-2.369 8.914l9.329 21.925-14.401 102.264-78.408-200.906zm49.805 42.621 12.55 53.528-63.308-13.443zm32.856.468c.09.021.179.04.269.057l41.831 8.883-47.893 40.308-12.455-53.123zm72.241 15.341 60.335 12.812-32.532 43.559zm-16.058 1.353 28.983 58.763-78.898-16.754zm88.35 20.518 30.513 57.331-63.293-13.44zm-171.051-58.178c-2.271-.54-4.685.026-6.478 1.494l-42.578 33.625 8.32-59.079 86.054-10.262-21.069 39.372zm-36.536-39.567 21.071-63.761 57.42 54.401zm-186.314-39.022 35.135 57.051-78.482 9.359zm153.341 258.951 9.034-64.153 11.204 26.332zm102.995 94.377-9.287-181.559 90.027 19.117z"/><path d="m372.159 71.402.336.137c13.743 5.602 24.833 16.712 30.426 30.48 3.478 6.268 10.692 6.334 14.168 0 5.593-13.769 16.683-24.879 30.43-30.482 6.418-3.567 6.237-10.932-.287-14.28-13.715-5.679-24.745-16.852-30.262-30.655-2.883-7.212-11.087-4.895-14.048.294-5.593 13.769-16.683 24.879-30.43 30.482-5.197 2.944-7.333 11.166-.333 14.024zm37.847-26.088c5.082 7.536 11.591 14.055 19.12 19.144-7.526 5.088-14.038 11.607-19.12 19.144-5.083-7.536-11.593-14.056-19.119-19.143 7.524-5.089 14.036-11.609 19.119-19.145z"/><path d="m79.3 331.836-.476-.197c-9.483-3.926-17.11-11.652-20.925-21.197-3.076-7.694-10.697-4.313-14.012.204-3.868 9.521-11.536 17.204-21.036 21.076-5.705 4.26-6.465 9.969-.002 14.089 9.502 3.873 17.17 11.555 21.039 21.078 4.264 5.709 9.974 6.474 14.094-.001 3.868-9.521 11.536-17.204 21.048-21.081 4.498-3.322 7.71-10.891.27-13.971zm-28.365 17.368c-2.979-3.938-6.492-7.457-10.424-10.438 3.934-2.982 7.446-6.499 10.425-10.437 2.979 3.937 6.492 7.455 10.426 10.437-3.934 2.981-7.449 6.5-10.427 10.438z"/><path d="m189.906 461.264-.655-.271c-13.715-5.679-24.745-16.852-30.262-30.655-2.883-7.212-11.087-4.895-14.049.294-5.593 13.769-16.683 24.879-30.43 30.482-6.253 3.482-6.318 10.684.003 14.16 13.743 5.602 24.833 16.712 30.43 30.489 3.633 6.546 10.538 6.541 14.165-.008 5.593-13.769 16.683-24.879 30.421-30.479 5.195-2.931 7.346-11.126.377-14.012zm-37.882 26.072c-5.082-7.535-11.593-14.055-19.119-19.143 7.527-5.088 14.039-11.608 19.12-19.144 5.083 7.536 11.591 14.054 19.119 19.143-7.526 5.088-14.037 11.608-19.12 19.144z"/><path d="m343.78 11.696c3.261 7.533 14.154 5.163 14.42-2.87-.441-11.996-18.491-8.561-14.42 2.87z"/><path d="m240.93 430.256c-1.69-4.432-7.544-5.762-11.09-3.37-3.427 2.259-4.308 7.004-2.07 10.4 2.236 3.396 7.023 4.344 10.39 2.07 2.988-1.921 4.065-5.859 2.77-9.1z"/></g></g></svg>