<svg id="Layer_1" enable-background="new 0 0 520 520" height="512" viewBox="0 0 520 520" width="512" xmlns="http://www.w3.org/2000/svg"><g id="_x36_99_x2C__Night_x2C__Party_x2C__Drink"><g><path d="m356.9 239.6c0-6.7-6.4-11.6-12.9-9.8-.3.1-27 7.3-49.4 7.3-15.5 0-20.9-3.5-22.5-5-7.6-7-19.5-10.4-36.4-10.4-25.3 0-53.7 7.7-54.9 8.1-4.4 1.2-7.5 5.2-7.5 9.8 0 50.6 41.2 91.8 91.8 91.8 50.6.1 91.8-41.1 91.8-91.8zm-162.8 7.9c9.7-2.2 26.5-5.4 41.5-5.4 15.5 0 20.9 3.5 22.5 5 16.8 15.6 54.7 10.3 77.1 5.7-6.2 33.1-35.3 58.3-70.2 58.3-36.6 0-66.9-27.9-70.9-63.6z"/><path d="m356.9 484.5h-30.6v-20.4c0-5.6-4.6-10.2-10.2-10.2h-40.8v-71.8c74-5.3 132.6-67.1 132.6-142.5 0-32-10.9-63.3-30.6-88.4v-44.2c0-5.6-4.6-10.2-10.2-10.2h-82.2l36.4-51h66.2c5.6 0 10.2-4.6 10.2-10.2s-4.6-10.2-10.2-10.2h-71.4c-3.3 0-6.4 1.6-8.3 4.3l-48 67.1h-72.1l43.8-43.8c4.1-4.1 4-11-.5-14.9-28.3-25-61.4-23.1-60.9-23-.6.1-35-2.3-64.1 26.3-33.4 31.1-38.3 88.1-4.6 126.3 3.9 4.4 10.7 4.6 14.9.5l36.6-36.6v19.7c-19.8 25.1-30.6 56.3-30.6 88.4 0 75.3 58.6 137.2 132.6 142.5v71.8h-40.8c-5.6 0-10.2 4.6-10.2 10.2v20.4h-30.6c-5.6 0-10.2 4.6-10.2 10.2s4.6 10.2 10.2 10.2h183.7c5.6 0 10.2-4.6 10.2-10.2-.1-5.7-4.6-10.3-10.3-10.3zm-244.2-419.6 27.9 31.9h-41c1.7-11.8 6.3-22.7 13.1-31.9zm42.3 17.4-28-32c9.2-7 20.2-11.9 32.1-13.8zm20.7-2.4 3.9-43.7c10.4 1.4 20.4 5 29.2 10.6zm-65.6 65.6c-5.5-8.6-9.1-18.2-10.5-28.3h38.8zm32.6 94.1c0-28.5 10-56.3 28.3-78.2 1.5-1.8 2.4-4.1 2.4-6.5v-37.7h183.7v27.5h-40.8c-5.6 0-10.2 4.6-10.2 10.2s4.6 10.2 10.2 10.2h46.1c16.4 21.3 25.3 47.6 25.3 74.6 0 67.5-54.9 122.4-122.4 122.4-67.7 0-122.6-55-122.6-122.5zm81.6 244.9v-10.2h81.6v10.2z"/><path d="m438.6 341.7c-16.9 0-30.6 13.7-30.6 30.6s13.7 30.6 30.6 30.6 30.6-13.7 30.6-30.6-13.8-30.6-30.6-30.6zm0 40.8c-5.6 0-10.2-4.6-10.2-10.2s4.6-10.2 10.2-10.2 10.2 4.6 10.2 10.2-4.6 10.2-10.2 10.2z"/><path d="m300.8 219.2c14.1 0 25.5-11.4 25.5-25.5s-11.4-25.5-25.5-25.5-25.5 11.4-25.5 25.5 11.4 25.5 25.5 25.5zm0-30.6c2.8 0 5.1 2.3 5.1 5.1s-2.3 5.1-5.1 5.1-5.1-2.3-5.1-5.1 2.3-5.1 5.1-5.1z"/><path d="m76.3 300.8c-14.1 0-25.5 11.4-25.5 25.5s11.4 25.5 25.5 25.5 25.5-11.4 25.5-25.5c0-14-11.4-25.5-25.5-25.5zm0 30.7c-2.8 0-5.1-2.3-5.1-5.1s2.3-5.1 5.1-5.1 5.1 2.3 5.1 5.1-2.2 5.1-5.1 5.1z"/><path d="m224.3 198.8c16.9 0 30.6-13.7 30.6-30.6s-13.7-30.6-30.6-30.6-30.6 13.7-30.6 30.6 13.7 30.6 30.6 30.6zm0-40.8c5.6 0 10.2 4.6 10.2 10.2s-4.6 10.2-10.2 10.2-10.2-4.6-10.2-10.2 4.6-10.2 10.2-10.2z"/><path d="m440.6 147.7c5.6-.6 9.7-5.6 9.1-11.2-.6-5.6-5.6-9.7-11.2-9.1s-9.7 5.6-9.1 11.2 5.6 9.7 11.2 9.1z"/><path d="m376.3 392.7c-5.6.6-9.7 5.6-9.1 11.2s5.6 9.7 11.2 9.1 9.7-5.6 9.1-11.2c-.6-5.5-5.6-9.6-11.2-9.1z"/><path d="m163 422.3c-.6-5.6-5.6-9.7-11.2-9.1s-9.7 5.6-9.1 11.2 5.6 9.7 11.2 9.1 9.7-5.6 9.1-11.2z"/><path d="m62.1 229.4c5.6-.6 9.7-5.6 9.1-11.2s-5.6-9.7-11.2-9.1-9.7 5.6-9.1 11.2c.6 5.5 5.6 9.6 11.2 9.1z"/></g></g></svg>