<svg id="Layer_1" viewBox="0 0 128 128" xmlns="http://www.w3.org/2000/svg" data-name="Layer 1"><path d="m69.01477 47.94434a205.60835 205.60835 0 0 1 12.19336 20.4043 2.00044 2.00044 0 0 0 3.584 0 205.60835 205.60835 0 0 1 12.19336-20.4043l.751-1.1543c3.43555-5.28564 6.5-10.5542 6.252-16.87793a22.12047 22.12047 0 0 0 -1.40918-6.9585 21.04256 21.04256 0 0 0 -39.15723 0 22.09717 22.09717 0 0 0 -1.41016 6.9585c-.248 6.32373 2.81641 11.59229 6.252 16.87891zm-3.00684-17.87647a18.12945 18.12945 0 0 1 1.15723-5.7041 17.04347 17.04347 0 0 1 31.6709 0 18.15557 18.15557 0 0 1 1.15625 5.7041v.00049c.20117 5.15088-2.53906 9.81787-5.60937 14.541l-.75 1.15234c-3.64453 5.59766-7.39355 11.35547-10.63281 17.35352-3.23926-5.998-6.98828-11.75586-10.63281-17.35352l-.75-1.15137c-3.07032-4.7241-5.81056-9.39109-5.60939-14.54246z"/><path d="m83.00012 44a13 13 0 1 0 -13-13 13.01474 13.01474 0 0 0 13 13zm0-22a9 9 0 1 1 -9 9 9.01015 9.01015 0 0 1 9-9z"/><path d="m58.45923 35.06482-12.37805-8.53754a24.42028 24.42028 0 0 1 -1.59906 3.75672l16.06388 11.07983a28.74826 28.74826 0 0 1 -2.08677-6.29901z"/><path d="m123.41418 79.09668a2.00549 2.00549 0 0 0 -1.88672-.56445l-10.40234 2.37109-7.66212-10.84961a2.00449 2.00449 0 0 0 -.56348-.53613l-5.97266-3.7832-2.96971-5.59388q-1.22543 2.00794-2.38515 4.0373l2.07068 3.90033a1.99755 1.99755 0 0 0 .69629.752l6.085 3.85449 8.20603 11.62007a2.00829 2.00829 0 0 0 2.07813.79688l10.60547-2.418 2.3877 2.48633-4.5254 12.72756-32.49023 9.12207a1.9994 1.9994 0 0 0 -1.17773.90332l-3.835 6.4502-7.56442-5.03805a1.99454 1.99454 0 0 0 -1.60352-.27246l-12.33594 3.15527a1.9907 1.9907 0 0 0 -1.15137.80273l-3.43261 4.97946h-3.69336l-18.7041-26.98828-.23437-7.79395a2.0037 2.0037 0 0 0 -.31055-1.01172l-16.61719-26.1748a1.99978 1.99978 0 0 0 -1.30957-.89209l-7.47851-1.44287-2.69532-6.89356 13.37836-6.33636c-.71759-1.139-1.44763-2.271-2.17938-3.394l-14.59741 6.914a2 2 0 0 0 -1.00586 2.53609l3.77637 9.65723a2 2 0 0 0 1.48339 1.23531l7.71289 1.48828 15.86133 24.98344.23535 7.83691a2.00127 2.00127 0 0 0 .35547 1.08008l19.63867 28.33594a1.99808 1.99808 0 0 0 1.64356.86035h5.791a1.99779 1.99779 0 0 0 1.64648-.86523l3.60352-5.22754 10.74707-2.749 8.5752 5.71094a2.00027 2.00027 0 0 0 2.82715-.64258l4.502-7.57227 32.7168-9.18555a2.0008 2.0008 0 0 0 1.34375-1.25586l5.28711-14.86719a2.00276 2.00276 0 0 0 -.44243-2.05572z"/><path d="m28.00012 6a14.75611 14.75611 0 0 0 -13.98437 9.48291 15.60766 15.60766 0 0 0 -1.00488 4.938c-.17871 4.49316 1.9707 8.17627 4.38086 11.86523l.52246.79834a139.17475 139.17475 0 0 1 8.2959 13.80811 2.00042 2.00042 0 0 0 3.58008 0 139.17475 139.17475 0 0 1 8.2959-13.80811l.52246-.79883c2.41016-3.688 4.55859-7.37109 4.38086-11.86377a15.60806 15.60806 0 0 0 -1.00488-4.939 14.75611 14.75611 0 0 0 -13.98439-9.48288zm10.99317 14.5791c.13086 3.31885-1.61328 6.27393-3.73242 9.51758l-.52148.79736c-2.29395 3.50391-4.64746 7.09961-6.73926 10.8374-2.0918-3.73779-4.44531-7.3335-6.73926-10.8374l-.52148-.79687c-2.11914-3.24414-3.86328-6.19922-3.73242-9.519a11.67963 11.67963 0 0 1 .749-3.67822 10.69149 10.69149 0 0 1 10.24415-6.89995 10.69149 10.69149 0 0 1 10.24414 6.8999 11.67963 11.67963 0 0 1 .749 3.67822z"/><path d="m28.00012 14a7 7 0 1 0 7 7 7.00818 7.00818 0 0 0 -7-7zm0 10a3 3 0 1 1 3-3 3.00328 3.00328 0 0 1 -3 3z"/><path d="m39.01575 72.48242a15.60786 15.60786 0 0 0 -1.00488 4.93848c-.17871 4.49316 1.9707 8.17578 4.38086 11.86523l.51953.79395a139.37841 139.37841 0 0 1 8.29883 13.8125 2.00042 2.00042 0 0 0 3.58008 0 139.37842 139.37842 0 0 1 8.29883-13.8125l.51953-.79492c2.41016-3.6875 4.55859-7.37012 4.38086-11.86328a15.59689 15.59689 0 0 0 -1.00489-4.93848 15.05278 15.05278 0 0 0 -27.96875-.001zm3.74023 1.417a11.05458 11.05458 0 0 1 20.48828.001 11.6739 11.6739 0 0 1 .749 3.67773v.001c.13086 3.31836-1.61328 6.27441-3.73242 9.51758l-.51855.793c-2.29492 3.50586-4.64941 7.10254-6.74219 10.8418-2.09277-3.73926-4.44727-7.33594-6.74219-10.8418l-.51855-.792c-2.11914-3.24414-3.86328-6.2002-3.73242-9.51953a11.68536 11.68536 0 0 1 .74906-3.67879z"/><path d="m53.00012 85a7 7 0 1 0 -7-7 7.00849 7.00849 0 0 0 7 7zm0-10a3 3 0 1 1 -3 3 3.00328 3.00328 0 0 1 3-3z"/></svg>