<svg id="Capa_1" enable-background="new 0 0 512.012 512.012" height="512" viewBox="0 0 512.012 512.012" width="512" xmlns="http://www.w3.org/2000/svg"><g><g><path d="m462.652 395.994c-7.952-1.641-15.266-6.669-20.594-14.159-15.068-21.187-42.071-30.9-67.186-24.164-25.117 6.729-43.646 28.64-46.104 54.519-.868 9.151-4.688 17.163-10.754 22.56-12.579 11.19-17.688 28.24-13.333 44.494 5.286 19.728 23.192 32.771 42.709 32.77 3.776 0 7.614-.488 11.432-1.512l106.365-28.5c11.405-3.056 20.938-10.371 26.842-20.597 5.903-10.226 7.472-22.139 4.415-33.543-4.354-16.256-17.302-28.466-33.792-31.868zm16.387 57.91c-3.9 6.756-10.198 11.589-17.733 13.608l-106.365 28.5c-7.534 2.019-15.405.982-22.161-2.918s-11.589-10.199-13.608-17.733c-2.877-10.741.501-22.009 8.815-29.405 8.906-7.924 14.488-19.412 15.717-32.349 1.868-19.674 15.955-36.331 35.053-41.448 4.039-1.082 8.141-1.605 12.208-1.605 15.165 0 29.839 7.276 38.872 19.976 7.531 10.588 18.109 17.746 29.785 20.156 10.899 2.248 19.458 10.316 22.336 21.058 2.017 7.534.981 15.404-2.919 22.16z"/><path d="m314.627 339.313c-3.896-14.539-12.158-27.047-23.267-35.219-11.614-8.544-24.931-11.397-37.496-8.027-21.663 5.804-35.577 29.454-33.085 56.234.384 4.125 4.041 7.15 8.163 6.773 4.124-.384 7.157-4.038 6.773-8.162-1.812-19.479 7.454-36.451 22.032-40.357 8.074-2.164 16.855-.168 24.726 5.622 8.375 6.161 14.649 15.757 17.667 27.019 3.018 11.261 2.382 22.708-1.791 32.231-3.921 8.948-10.526 15.067-18.602 17.231-12.401 3.327-26.272-3.3-35.323-16.875-2.297-3.444-6.954-4.376-10.401-2.079-3.446 2.298-4.377 6.955-2.08 10.401 10.355 15.529 25.785 24.408 41.293 24.407 3.479 0 6.963-.447 10.394-1.366 12.565-3.367 22.672-12.494 28.458-25.7 5.534-12.631 6.436-27.594 2.539-42.133z"/><path d="m441.134 346.869c8.434 6.204 17.763 9.407 27.053 9.406 3.504 0 7.003-.455 10.444-1.378 25.299-6.779 39.205-37.21 30.998-67.835-3.896-14.538-12.158-27.046-23.267-35.218-11.615-8.545-24.931-11.398-37.496-8.028-12.565 3.367-22.673 12.494-28.459 25.7-5.534 12.632-6.437 27.596-2.54 42.135 3.896 14.539 12.159 27.046 23.267 35.218zm-6.987-71.333c3.921-8.947 10.527-15.067 18.603-17.231 2.124-.569 4.298-.851 6.49-.851 6.142 0 12.436 2.207 18.234 6.473 8.375 6.162 14.649 15.757 17.667 27.019 6.065 22.636-3.083 44.825-20.393 49.464-8.074 2.165-16.856.166-24.726-5.622-8.375-6.162-14.649-15.757-17.667-27.019s-2.381-22.71 1.792-32.233z"/><path d="m327.008 310.948c8.434 6.204 17.763 9.407 27.052 9.406 3.504 0 7.003-.455 10.444-1.378 12.565-3.367 22.673-12.494 28.459-25.7 5.534-12.632 6.437-27.596 2.54-42.135-3.896-14.539-12.158-27.046-23.267-35.218-11.614-8.545-24.932-11.398-37.497-8.028-25.299 6.779-39.205 37.21-30.998 67.835 3.896 14.538 12.159 27.046 23.267 35.218zm11.615-88.565c2.124-.569 4.298-.851 6.49-.851 6.142 0 12.437 2.207 18.235 6.473 8.375 6.162 14.649 15.757 17.667 27.019s2.382 22.709-1.791 32.232c-3.921 8.947-10.527 15.067-18.603 17.231-8.072 2.166-16.855.167-24.725-5.622-8.375-6.162-14.649-15.757-17.667-27.019-6.064-22.635 3.084-44.824 20.394-49.463z"/><path d="m193.997 228.233c-6.066-5.396-9.885-13.408-10.754-22.56-2.457-25.879-20.984-47.788-46.103-54.52-25.12-6.734-52.118 2.981-67.186 24.164-5.328 7.49-12.642 12.52-20.593 14.16-16.489 3.401-29.438 15.612-33.794 31.866-6.308 23.545 7.714 47.832 31.259 54.141l106.364 28.5c3.809 1.021 7.673 1.525 11.514 1.525 7.66 0 15.22-2.009 22.031-5.941 10.226-5.904 17.541-15.437 20.597-26.842 4.354-16.253-.755-33.302-13.335-44.493zm-1.156 40.611c-2.019 7.535-6.852 13.834-13.607 17.734-6.757 3.9-14.627 4.936-22.162 2.918l-106.364-28.5c-15.556-4.169-24.82-20.215-20.652-35.77 2.878-10.741 11.437-18.81 22.336-21.058 11.675-2.41 22.253-9.568 29.785-20.157 9.033-12.699 23.707-19.975 38.874-19.975 4.066 0 8.169.522 12.207 1.604 19.098 5.118 33.185 21.775 35.052 41.449 1.228 12.937 6.81 24.425 15.717 32.349 8.315 7.399 11.692 18.666 8.814 29.406z"/><path d="m33.382 148.381c3.442.923 6.94 1.378 10.444 1.378 9.289 0 18.619-3.202 27.052-9.406 11.108-8.172 19.371-20.68 23.267-35.219s2.994-29.502-2.541-42.134c-5.786-13.206-15.893-22.333-28.458-25.7-12.566-3.37-25.882-.517-37.496 8.028-11.108 8.173-19.372 20.679-23.268 35.218-8.206 30.626 5.701 61.057 31 67.835zm-16.51-63.952c3.017-11.262 9.292-20.857 17.667-27.019 5.799-4.266 12.092-6.473 18.234-6.473 2.193 0 4.367.281 6.491.851 8.075 2.164 14.682 8.283 18.602 17.231 4.172 9.523 4.809 20.971 1.791 32.231-3.018 11.263-9.292 20.857-17.667 27.02-7.869 5.788-16.651 7.785-24.725 5.622-17.311-4.638-26.459-26.827-20.393-49.463z"/><path d="m238.828 202.009c9.289 0 18.62-3.202 27.052-9.405 11.108-8.172 19.371-20.68 23.267-35.219s2.994-29.503-2.54-42.134c-5.786-13.207-15.894-22.334-28.459-25.701-19.142-5.132-39.674 4.295-52.316 24.006-2.236 3.486-1.223 8.126 2.264 10.362 3.486 2.235 8.126 1.223 10.362-2.265 9.047-14.105 23.101-21.021 35.808-17.615 8.075 2.164 14.681 8.284 18.602 17.232 4.173 9.523 4.809 20.97 1.791 32.231s-9.292 20.857-17.667 27.019c-7.87 5.789-16.649 7.784-24.726 5.622-14.265-3.822-23.562-20.428-22.106-39.485.316-4.13-2.776-7.733-6.907-8.05-4.125-.32-7.733 2.776-8.049 6.907-2.039 26.672 11.606 49.336 33.18 55.116 3.442.924 6.94 1.379 10.444 1.379z"/><path d="m147.508 112.461c3.442.923 6.939 1.378 10.444 1.378 9.289 0 18.62-3.202 27.052-9.406 11.108-8.172 19.372-20.679 23.268-35.218 8.206-30.626-5.701-61.057-31-67.835-12.568-3.37-25.882-.517-37.497 8.028-11.108 8.172-19.371 20.679-23.267 35.218s-2.994 29.503 2.541 42.135c5.787 13.205 15.893 22.332 28.459 25.7zm-16.51-63.953c3.018-11.262 9.292-20.857 17.667-27.019 5.799-4.266 12.092-6.473 18.234-6.473 2.192 0 4.366.281 6.49.851 17.31 4.639 26.458 26.828 20.393 49.464-3.017 11.262-9.292 20.857-17.667 27.019-7.87 5.788-16.652 7.785-24.725 5.622-8.075-2.164-14.682-8.283-18.602-17.231-4.172-9.524-4.808-20.971-1.79-32.233z"/></g></g></svg>