<svg id="Capa_1" enable-background="new 0 0 511.945 511.945" height="512" viewBox="0 0 511.945 511.945" width="512" xmlns="http://www.w3.org/2000/svg"><g id="XMLID_2368_"><g id="XMLID_192_"><path id="XMLID_201_" d="m486.956 222.204c-19.059-19.057-44.962-27.175-69.87-24.395 8.766-39.049-2.838-80.444-31.696-109.304-46-45.999-120.848-46-166.848 0l-8.598 8.598-8.598-8.598c-46.001-45.999-120.847-45.999-166.847.001-45.999 46-45.999 120.846 0 166.846l45.91 45.91c1.953 1.953 4.512 2.929 7.071 2.929s5.118-.977 7.071-2.929c3.905-3.905 3.905-10.237 0-14.142l-45.91-45.91c-38.202-38.201-38.202-100.36 0-138.562 38.2-38.202 100.36-38.202 138.563 0l15.669 15.669c1.876 1.875 4.419 2.929 7.071 2.929s5.196-1.054 7.071-2.929l15.669-15.669c38.202-38.203 100.362-38.2 138.563 0 26.442 26.443 35.438 65.555 23.522 100.748-10.368 4.158-20.081 10.423-28.466 18.808l-3.858 3.859-3.858-3.859c-33.264-33.262-87.388-33.265-120.653 0-16.114 16.114-24.988 37.539-24.988 60.327s8.874 44.213 24.988 60.327l15.833 15.833-37.978 37.978c-3.223 3.223-8.465 3.223-11.688 0l-45.907-45.907c-3.906-3.905-10.236-3.905-14.143 0-3.905 3.905-3.905 10.237 0 14.143l45.907 45.907c5.511 5.51 12.748 8.265 19.986 8.265s14.476-2.755 19.986-8.265l37.978-37.978 78.457 78.457c4.433 4.433 10.256 6.649 16.079 6.649s11.646-2.216 16.08-6.649l108.432-108.432c16.114-16.114 24.988-37.538 24.988-60.327s-8.873-44.214-24.988-60.328zm-14.142 106.511-108.431 108.433c-1.07 1.068-2.808 1.068-3.876 0l-108.432-108.433c-12.337-12.336-19.131-28.738-19.131-46.184s6.794-33.848 19.131-46.185c12.336-12.336 28.738-19.13 46.184-19.13s33.849 6.794 46.185 19.13l10.93 10.929c3.906 3.905 10.236 3.905 14.143 0l10.93-10.93c12.336-12.336 28.738-19.13 46.185-19.13 17.445 0 33.848 6.794 46.184 19.13 12.337 12.336 19.131 28.738 19.131 46.185s-6.796 33.849-19.133 46.185z"/><path id="XMLID_202_" d="m119.304 316.01c-2.64 0-5.21 1.07-7.08 2.93-1.859 1.86-2.92 4.44-2.92 7.07s1.061 5.21 2.92 7.07c1.87 1.86 4.45 2.93 7.08 2.93 2.631 0 5.2-1.07 7.07-2.93 1.86-1.86 2.93-4.44 2.93-7.07s-1.069-5.21-2.93-7.07-4.439-2.93-7.07-2.93z"/></g></g></svg>