<svg id="Icon" viewBox="0 0 24 24" xmlns="http://www.w3.org/2000/svg"><path d="m14.957 18.473c.311.274.339.749.064 1.059-1.249 1.41-3.052 2.219-4.945 2.219-3.666 0-6.648-2.982-6.648-6.648 0-2.367 1.274-4.571 3.325-5.752.359-.205.818-.083 1.024.276s.083.817-.276 1.024c-1.587.913-2.573 2.619-2.573 4.451 0 2.839 2.31 5.148 5.148 5.148 1.465 0 2.857-.624 3.822-1.713.274-.312.749-.338 1.059-.064zm4.321 2.224c-.091.036-.186.054-.278.054-.298 0-.579-.178-.696-.472l-1.497-3.743c-.191-.477-.646-.785-1.161-.785h-2.646c-1.517 0-2.75-1.233-2.75-2.75v-5.367c-1.151-.329-2-1.378-2-2.633 0-1.517 1.233-2.75 2.75-2.75s2.75 1.233 2.75 2.75c0 1.255-.849 2.304-2 2.633v1.617h4.25c.414 0 .75.336.75.75s-.336.75-.75.75h-4.25v2.25c0 .689.561 1.25 1.25 1.25h2.646c1.131 0 2.134.679 2.554 1.729l1.497 3.743c.154.385-.033.821-.418.975zm-8.278-14.447c.689 0 1.25-.561 1.25-1.25s-.561-1.25-1.25-1.25-1.25.561-1.25 1.25.561 1.25 1.25 1.25z"/></svg>